<?xml version="1.0" encoding="UTF-8" standalone="no"?>
<svg
   xmlns:dc="http://purl.org/dc/elements/1.1/"
   xmlns:cc="http://creativecommons.org/ns#"
   xmlns:rdf="http://www.w3.org/1999/02/22-rdf-syntax-ns#"
   xmlns:svg="http://www.w3.org/2000/svg"
   xmlns="http://www.w3.org/2000/svg"
   xmlns:sodipodi="http://sodipodi.sourceforge.net/DTD/sodipodi-0.dtd"
   xmlns:inkscape="http://www.inkscape.org/namespaces/inkscape"
   id="svg3066"
   height="22"
   width="22"
   version="1.1"
   inkscape:version="0.91 r13725"
   sodipodi:docname="vlc.svg">
  <sodipodi:namedview
     pagecolor="#757575"
     bordercolor="#666666"
     borderopacity="1"
     objecttolerance="10"
     gridtolerance="10"
     guidetolerance="10"
     inkscape:pageopacity="0"
     inkscape:pageshadow="2"
     inkscape:window-width="1366"
     inkscape:window-height="687"
     id="namedview12"
     showgrid="false"
     inkscape:zoom="7.5853273"
     inkscape:cx="11.920137"
     inkscape:cy="-2.1155704"
     inkscape:window-x="0"
     inkscape:window-y="0"
     inkscape:window-maximized="1"
     inkscape:current-layer="svg3066" />
  <defs
     id="defs3615">
    <style
       id="current-color-scheme"
       type="text/css">
			.ColorScheme-Text { color:#0000FF; }
		</style>
  </defs>
  <metadata
     id="metadata3071">
    <rdf:RDF>
      <cc:Work
         rdf:about="">
        <dc:format>image/svg+xml</dc:format>
        <dc:type
           rdf:resource="http://purl.org/dc/dcmitype/StillImage" />
        <dc:title></dc:title>
        <dc:creator>
          <cc:Agent>
            <dc:title>obnosim</dc:title>
          </cc:Agent>
        </dc:creator>
        <cc:license
           rdf:resource="http://creativecommons.org/licenses/by-nc-sa/3.0/" />
      </cc:Work>
      <cc:License
         rdf:about="http://creativecommons.org/licenses/by-nc-sa/3.0/">
        <cc:permits
           rdf:resource="http://creativecommons.org/ns#Reproduction" />
        <cc:permits
           rdf:resource="http://creativecommons.org/ns#Distribution" />
        <cc:requires
           rdf:resource="http://creativecommons.org/ns#Notice" />
        <cc:requires
           rdf:resource="http://creativecommons.org/ns#Attribution" />
        <cc:prohibits
           rdf:resource="http://creativecommons.org/ns#CommercialUse" />
        <cc:permits
           rdf:resource="http://creativecommons.org/ns#DerivativeWorks" />
        <cc:requires
           rdf:resource="http://creativecommons.org/ns#ShareAlike" />
      </cc:License>
    </rdf:RDF>
  </metadata>
  <g
     id="22-22-vlc">
    <rect
       id="rect4169"
       style="fill:none"
       height="22"
       width="22"
       y="0"
       x="0" />
    <g
       transform="matrix(1.125,0,0,1.125,-365.94157,-604.53184)"
       id="layer1-1-6"
       inkscape:label="Capa 1"
       style="fill:#566060;fill-opacity:1;stroke:none;stroke-opacity:0.85">
      <g
         inkscape:label="Capa 1"
         id="layer1-8-9"
         transform="matrix(1.125,0,0,1.125,-295.57142,-150.61666)"
         style="fill:#566060;fill-opacity:1;stroke:none;stroke-opacity:0.85" />
      <path
         style="display:inline;opacity:1;fill:#566060;fill-opacity:1;stroke:none;stroke-width:0.44444445;stroke-linecap:round;stroke-linejoin:round;stroke-miterlimit:4;stroke-dasharray:none;stroke-opacity:0.85;enable-background:new"
         d="m 327.96716,540.0283 c -0.37079,0 -0.67014,0.29935 -0.67014,0.67014 l 0,12.88368 c 0,0.37079 0.29935,0.6684 0.67014,0.6684 l 14.18403,0 c 0.3708,0 0.67014,-0.29761 0.67014,-0.6684 l 0,-12.88368 c 0,-0.37079 -0.29934,-0.67014 -0.67014,-0.67014 l -14.18403,0 z m 0.5868,0.48611 2.46355,0 1.92361,1.88368 -1.92361,1.70313 -2.46355,0 1.7448,-1.70313 -1.7448,-1.88368 z m 4.34723,0 2.46354,0 1.92361,1.88368 -1.92361,1.70313 -2.46354,0 1.74479,-1.70313 -1.74479,-1.88368 z m 4.44097,0 2.46354,0 1.92361,1.88368 -1.92361,1.70313 -2.46354,0 1.74479,-1.70313 -1.74479,-1.88368 z m -4.94965,5.73611 5.33333,2.66667 -5.33333,2.66667 0,-5.33334 z"
         id="path4229-3"
         inkscape:connector-curvature="0" />
    </g>
  </g>
  <g
     id="vlc">
    <rect
       id="rect3339"
       style="fill:none"
       height="31.999201"
       width="31.999201"
       y="-9"
       x="24" />
    <g
       style="fill:#566060;fill-opacity:1;stroke:none;stroke-opacity:0.85"
       inkscape:label="Capa 1"
       id="layer1-1-6-9"
       transform="matrix(1.5468752,0,0,1.5468752,-478.29513,-839.35678)">
      <g
         style="fill:#566060;fill-opacity:1;stroke:none;stroke-opacity:0.85"
         transform="matrix(1.125,0,0,1.125,-295.57142,-150.61666)"
         id="layer1-8-9-2"
         inkscape:label="Capa 1" />
      <path
         inkscape:connector-curvature="0"
         id="path4229-3-4"
         d="m 327.96716,540.0283 c -0.37079,0 -0.67014,0.29935 -0.67014,0.67014 l 0,12.88368 c 0,0.37079 0.29935,0.6684 0.67014,0.6684 l 14.18403,0 c 0.3708,0 0.67014,-0.29761 0.67014,-0.6684 l 0,-12.88368 c 0,-0.37079 -0.29934,-0.67014 -0.67014,-0.67014 l -14.18403,0 z m 0.5868,0.48611 2.46355,0 1.92361,1.88368 -1.92361,1.70313 -2.46355,0 1.7448,-1.70313 -1.7448,-1.88368 z m 4.34723,0 2.46354,0 1.92361,1.88368 -1.92361,1.70313 -2.46354,0 1.74479,-1.70313 -1.74479,-1.88368 z m 4.44097,0 2.46354,0 1.92361,1.88368 -1.92361,1.70313 -2.46354,0 1.74479,-1.70313 -1.74479,-1.88368 z m -4.94965,5.73611 5.33333,2.66667 -5.33333,2.66667 0,-5.33334 z"
         style="display:inline;opacity:1;fill:#566060;fill-opacity:1;stroke:none;stroke-width:0.44444445;stroke-linecap:round;stroke-linejoin:round;stroke-miterlimit:4;stroke-dasharray:none;stroke-opacity:0.85;enable-background:new" />
    </g>
  </g>
</svg>
